<svg class="animated" id="freepik_stories-social-ideas" xmlns="http://www.w3.org/2000/svg" viewBox="0 0 500 500" version="1.1" xmlns:xlink="http://www.w3.org/1999/xlink" xmlns:svgjs="http://svgjs.com/svgjs"><style>svg#freepik_stories-social-ideas:not(.animated) .animable {opacity: 0;}svg#freepik_stories-social-ideas.animated #freepik--ligh-bulbs--inject-1--inject-170 {animation: 1.5s Infinite  linear floating;animation-delay: 0s;}svg#freepik_stories-social-ideas.animated #freepik--social-icons--inject-1--inject-170 {animation: 1.5s Infinite  linear floating;animation-delay: 0s;}            @keyframes floating {                0% {                    opacity: 1;                    transform: translateY(0px);                }                50% {                    transform: translateY(-10px);                }                100% {                    opacity: 1;                    transform: translateY(0px);                }            }        </style><!--Social Ideas--><g id="freepik--Floor--inject-1--inject-170" class="animable" style="transform-origin: 250px 334.31px;"><ellipse id="freepik--floor--inject-1--inject-170" cx="250" cy="334.31" rx="232.08" ry="136.34" style="fill: rgb(240, 240, 240); transform-origin: 250px 334.31px;" class="animable"></ellipse></g><g id="freepik--Shadows--inject-1--inject-170" class="animable" style="transform-origin: 250px 324.615px;"><ellipse id="freepik--Shadow--inject-1--inject-170" cx="392.07" cy="279.11" rx="32.97" ry="19.03" style="fill: rgb(224, 224, 224); transform-origin: 392.07px 279.11px;" class="animable"></ellipse><ellipse id="freepik--shadow--inject-1--inject-170" cx="311.08" cy="413" rx="44.63" ry="25.76" style="fill: rgb(224, 224, 224); transform-origin: 311.08px 413px;" class="animable"></ellipse><ellipse id="freepik--shadow--inject-1--inject-170" cx="181.34" cy="413" rx="44.63" ry="25.76" style="fill: rgb(224, 224, 224); transform-origin: 181.34px 413px;" class="animable"></ellipse><ellipse id="freepik--shadow--inject-1--inject-170" cx="107.93" cy="279.11" rx="32.97" ry="19.03" style="fill: rgb(224, 224, 224); transform-origin: 107.93px 279.11px;" class="animable"></ellipse><ellipse id="freepik--shadow--inject-1--inject-170" cx="249.66" cy="229.5" rx="32.97" ry="19.03" style="fill: rgb(224, 224, 224); transform-origin: 249.66px 229.5px;" class="animable"></ellipse></g><g id="freepik--ligh-bulbs--inject-1--inject-170" class="animable" style="transform-origin: 250px 162.403px;"><g id="freepik--Lightening--inject-1--inject-170" class="animable" style="transform-origin: 107.95px 202.598px;"><g id="elu29zoelsh8q"><circle cx="107.93" cy="268.56" r="13.92" style="fill: rgb(69, 90, 100); transform-origin: 107.93px 268.56px; transform: rotate(-76.72deg);" class="animable"></circle></g><path d="M129.31,250.24a17.7,17.7,0,0,1,.27-3.41c.81-3.73-1.25-7.62-6.21-10.48-8.53-4.93-22.36-4.93-30.89,0-5,2.86-7,6.75-6.21,10.48a17.7,17.7,0,0,1,.27,3.41,7.48,7.48,0,0,0,.18,1.48,17.16,17.16,0,0,1,.45,3.27,7.73,7.73,0,0,0,.21,1.51,14.62,14.62,0,0,1,.41,3.08A7.17,7.17,0,0,0,88,261a15.21,15.21,0,0,1,.41,3.08c.13,2.79,2,5.55,5.71,7.68,7.64,4.4,20,4.4,27.65,0,3.68-2.13,5.58-4.89,5.71-7.68a16,16,0,0,1,.41-3.08,7.17,7.17,0,0,0,.19-1.37,14.62,14.62,0,0,1,.41-3.08,7.73,7.73,0,0,0,.21-1.51,17.37,17.37,0,0,1,.45-3.28A7.3,7.3,0,0,0,129.31,250.24Z" style="fill: rgb(0, 255, 136); transform-origin: 107.927px 253.856px;" id="el4b6471cxxyq" class="animable"></path><g id="elryaaq6y0gf"><path d="M129.31,250.24a17.7,17.7,0,0,1,.27-3.41c.81-3.73-1.25-7.62-6.21-10.48-8.53-4.93-22.36-4.93-30.89,0-5,2.86-7,6.75-6.21,10.48a17.7,17.7,0,0,1,.27,3.41,7.48,7.48,0,0,0,.18,1.48,17.16,17.16,0,0,1,.45,3.27,7.73,7.73,0,0,0,.21,1.51,14.62,14.62,0,0,1,.41,3.08A7.17,7.17,0,0,0,88,261a15.21,15.21,0,0,1,.41,3.08c.13,2.79,2,5.55,5.71,7.68,7.64,4.4,20,4.4,27.65,0,3.68-2.13,5.58-4.89,5.71-7.68a16,16,0,0,1,.41-3.08,7.17,7.17,0,0,0,.19-1.37,14.62,14.62,0,0,1,.41-3.08,7.73,7.73,0,0,0,.21-1.51,17.37,17.37,0,0,1,.45-3.28A7.3,7.3,0,0,0,129.31,250.24Z" style="fill: rgb(255, 255, 255); opacity: 0.8; transform-origin: 107.927px 253.856px;" class="animable"></path></g><g id="elh66scmi3l47"><g style="opacity: 0.2; transform-origin: 107.94px 258.9px;" class="animable"><path d="M122.62,263.25a32.5,32.5,0,0,1-29.38,0,13,13,0,0,1-5.06-4.77,11.79,11.79,0,0,1-.79-2h0a15.19,15.19,0,0,1,.4,3.07A7.17,7.17,0,0,0,88,261c0,.05,0,.11,0,.16a13.48,13.48,0,0,0,5.66,6.43,31.56,31.56,0,0,0,28.5,0,13.47,13.47,0,0,0,5.65-6.41c0-.06,0-.12,0-.18a7.17,7.17,0,0,0,.19-1.37,14.62,14.62,0,0,1,.41-3.08,10.88,10.88,0,0,1-.8,2A13,13,0,0,1,122.62,263.25Z" style="fill: rgb(0, 255, 136); transform-origin: 107.9px 263.735px;" id="elgpmss5xzg7g" class="animable"></path><path d="M129.13,251.71a7.3,7.3,0,0,0,.18-1.47,17.7,17.7,0,0,1,.27-3.41,12.79,12.79,0,0,1-.69,2,13.46,13.46,0,0,1-5.51,5.38,34.19,34.19,0,0,1-30.9,0A13.4,13.4,0,0,1,87,248.81a11.38,11.38,0,0,1-.7-2h0a17.53,17.53,0,0,1,.27,3.4,7.48,7.48,0,0,0,.18,1.48.44.44,0,0,0,0,.1,13.83,13.83,0,0,0,6.05,7,31.2,31.2,0,0,0,15.14,3.61,31.26,31.26,0,0,0,15.14-3.61,13.88,13.88,0,0,0,6-7A.5.5,0,0,0,129.13,251.71Z" style="fill: rgb(0, 255, 136); transform-origin: 107.94px 254.608px;" id="el27a4hnetp7u" class="animable"></path></g></g><path d="M107.93,119.89A54.93,54.93,0,0,0,53,174.82c0,43.6,36,50.84,36,68.42,0,2.8,1.85,5.6,5.55,7.73,7.4,4.28,19.39,4.28,26.8,0,3.7-2.13,5.55-4.93,5.55-7.73h0c0-17.58,36-24.82,36-68.42A54.92,54.92,0,0,0,107.93,119.89Z" style="fill: rgb(0, 255, 136); transform-origin: 107.95px 187.035px;" id="el9mfe8b5u96c" class="animable"></path><g id="elcv4dkk2jf8q"><path d="M107.93,119.89A54.93,54.93,0,0,0,53,174.82c0,43.6,36,50.84,36,68.42,0,2.8,1.85,5.6,5.55,7.73,7.4,4.28,19.39,4.28,26.8,0,3.7-2.13,5.55-4.93,5.55-7.73h0c0-17.58,36-24.82,36-68.42A54.92,54.92,0,0,0,107.93,119.89Z" style="fill: rgb(255, 255, 255); opacity: 0.3; mix-blend-mode: screen; transform-origin: 107.95px 187.035px;" class="animable"></path></g><g id="el0ilrtfm2s37g"><path d="M97,249.57c-6.06-3.5-6.06-9.17,0-12.67s15.89-3.5,22,0,6.06,9.17,0,12.67S103,253.07,97,249.57Z" style="opacity: 0.1; transform-origin: 108.009px 243.235px;" class="animable"></path></g><g id="elsa9j525oceg"><path d="M70.42,155.91c-8.9,0-15.56,18.05-7.93,39S82.49,222,91,219.34s10.46-24.26,3.88-40.26C87.33,160.69,78.62,155.9,70.42,155.91Z" style="fill: rgb(255, 255, 255); opacity: 0.3; mix-blend-mode: screen; transform-origin: 78.9814px 187.917px;" class="animable"></path></g><path d="M103.91,246.66a.7.7,0,0,1-.7-.68c0-.14-.46-14.09-2.68-23.34a14.34,14.34,0,0,0-2.76-5.81c-5,2.13-9.12,1.63-10.66-.08a2.25,2.25,0,0,1,.17-3.28c1.37-1.42,3.64-1.88,6.07-1.22a10.5,10.5,0,0,1,4.78,2.88A26,26,0,0,0,103,212a23.71,23.71,0,0,0,5.92-6.87,7.23,7.23,0,0,1-3.85-6.06V179.63l-2.18,1.26a.73.73,0,0,1-.7,0,.71.71,0,0,1-.36-.61v-7a.7.7,0,0,1,.36-.61l2.88-1.66v-5.14c0-5.59,2.31-9.65,7.06-12.39l4.3-2.49a.73.73,0,0,1,.7,0,.71.71,0,0,1,.35.61v7.21a.69.69,0,0,1-.35.61l-3.36,1.94c-.88.51-1.09,1-1.09,2.51v2.74l3.75-2.16a.7.7,0,0,1,1,.65l-.46,7.21a.73.73,0,0,1-.35.57l-4,2.3v22.07a16.61,16.61,0,0,1-1.86,7.29,12.52,12.52,0,0,0,4.1.83,12.23,12.23,0,0,0,4.31-.59c2.18-5.94,4.77-10.05,7.1-10.88a2.15,2.15,0,0,1,2.18.31c.9.71,1.06,2,.45,3.69a15.18,15.18,0,0,1-8.65,8,75.66,75.66,0,0,0-2.53,9.11,122.32,122.32,0,0,0-2.91,25.31.7.7,0,0,1-.69.72h0a.7.7,0,0,1-.7-.69,122.94,122.94,0,0,1,2.93-25.64,79.44,79.44,0,0,1,2.26-8.31,13.91,13.91,0,0,1-3.8.36,13.48,13.48,0,0,1-4.69-1,25.41,25.41,0,0,1-6.29,7.36,28.16,28.16,0,0,1-4.84,3.11,16,16,0,0,1,2.82,6.08c2.25,9.4,2.71,23.48,2.71,23.63a.7.7,0,0,1-.68.72Zm-12.67-33.3a4,4,0,0,0-2.94,1.08c-.64.67-.4,1.1-.15,1.37,1,1.15,4.33,1.58,8.59-.08A9.09,9.09,0,0,0,93,213.6,6.8,6.8,0,0,0,91.24,213.36Zm36-18.25a1,1,0,0,0-.39.08c-1.58.57-3.77,3.68-5.81,8.85a13.46,13.46,0,0,0,6.65-6.66c.37-1,.37-1.81,0-2.1A.66.66,0,0,0,127.23,195.11Zm-21.42-17.4a.64.64,0,0,1,.35.1.68.68,0,0,1,.35.6v20.66a5.79,5.79,0,0,0,3.11,4.82,15.39,15.39,0,0,0,1.7-6.66V174.74a.71.71,0,0,1,.35-.61l4-2.31.36-5.53-3.67,2.11a.68.68,0,0,1-.7,0,.69.69,0,0,1-.35-.61v-3.95c0-1.75.28-2.86,1.78-3.72l3-1.74v-5.59l-3.25,1.88a12,12,0,0,0-6.36,11.17v5.54a.71.71,0,0,1-.35.61l-2.88,1.66v5.41l2.18-1.25A.64.64,0,0,1,105.81,177.71Z" style="fill: rgb(69, 90, 100); transform-origin: 107.873px 198.78px;" id="elfu9mx6soz2b" class="animable"></path></g><g id="freepik--lightening--inject-1--inject-170" class="animable" style="transform-origin: 392.1px 204.068px;"><g id="el2sh2lkh2tde"><circle cx="392.07" cy="268.56" r="13.92" style="fill: rgb(69, 90, 100); transform-origin: 392.07px 268.56px; transform: rotate(-45deg);" class="animable"></circle></g><path d="M413.46,250.24a17.7,17.7,0,0,1,.27-3.41c.81-3.73-1.25-7.62-6.21-10.48-8.53-4.93-22.36-4.93-30.89,0-5,2.86-7,6.75-6.21,10.48a17.7,17.7,0,0,1,.27,3.41,7.48,7.48,0,0,0,.18,1.48,17.16,17.16,0,0,1,.45,3.27,7.73,7.73,0,0,0,.21,1.51,14.62,14.62,0,0,1,.41,3.08,7.17,7.17,0,0,0,.19,1.37,16,16,0,0,1,.41,3.08c.13,2.79,2,5.55,5.71,7.68,7.63,4.4,20,4.4,27.65,0,3.68-2.13,5.58-4.89,5.71-7.68A15.94,15.94,0,0,1,412,261a6.48,6.48,0,0,0,.2-1.37,15.29,15.29,0,0,1,.4-3.08,7.06,7.06,0,0,0,.22-1.51,17.37,17.37,0,0,1,.45-3.28A7.3,7.3,0,0,0,413.46,250.24Z" style="fill: rgb(0, 255, 136); transform-origin: 392.077px 253.831px;" id="els36um43c2sm" class="animable"></path><g id="elrnazh8w3ura"><path d="M413.46,250.24a17.7,17.7,0,0,1,.27-3.41c.81-3.73-1.25-7.62-6.21-10.48-8.53-4.93-22.36-4.93-30.89,0-5,2.86-7,6.75-6.21,10.48a17.7,17.7,0,0,1,.27,3.41,7.48,7.48,0,0,0,.18,1.48,17.16,17.16,0,0,1,.45,3.27,7.73,7.73,0,0,0,.21,1.51,14.62,14.62,0,0,1,.41,3.08,7.17,7.17,0,0,0,.19,1.37,16,16,0,0,1,.41,3.08c.13,2.79,2,5.55,5.71,7.68,7.63,4.4,20,4.4,27.65,0,3.68-2.13,5.58-4.89,5.71-7.68A15.94,15.94,0,0,1,412,261a6.48,6.48,0,0,0,.2-1.37,15.29,15.29,0,0,1,.4-3.08,7.06,7.06,0,0,0,.22-1.51,17.37,17.37,0,0,1,.45-3.28A7.3,7.3,0,0,0,413.46,250.24Z" style="fill: rgb(255, 255, 255); opacity: 0.8; transform-origin: 392.077px 253.831px;" class="animable"></path></g><g id="elmvnnw0u08"><g style="opacity: 0.2; transform-origin: 392.075px 258.87px;" class="animable"><path d="M406.77,263.25a32.5,32.5,0,0,1-29.38,0,13,13,0,0,1-5.06-4.77,11,11,0,0,1-.79-2h0a14.53,14.53,0,0,1,.41,3.07,7.17,7.17,0,0,0,.19,1.37.9.9,0,0,1,0,.16,13.56,13.56,0,0,0,5.67,6.43,31.56,31.56,0,0,0,28.5,0,13.47,13.47,0,0,0,5.65-6.41,1.13,1.13,0,0,0,0-.18,6.48,6.48,0,0,0,.2-1.37,15.29,15.29,0,0,1,.4-3.08,10.29,10.29,0,0,1-.79,2A13,13,0,0,1,406.77,263.25Z" style="fill: rgb(0, 255, 136); transform-origin: 392.05px 263.69px;" id="eln3a4nqdei6" class="animable"></path><path d="M413.28,251.71a7.3,7.3,0,0,0,.18-1.47,17.7,17.7,0,0,1,.27-3.41,12.79,12.79,0,0,1-.69,2,13.49,13.49,0,0,1-5.52,5.38c-4.23,2.44-9.89,3.67-15.44,3.69s-11.22-1.25-15.45-3.69a13.49,13.49,0,0,1-5.52-5.38,12.79,12.79,0,0,1-.69-2h0a17.53,17.53,0,0,1,.27,3.4,7.48,7.48,0,0,0,.18,1.48s0,.06,0,.1a13.9,13.9,0,0,0,6.06,7,33.53,33.53,0,0,0,30.27,0,13.86,13.86,0,0,0,6.05-7S413.27,251.75,413.28,251.71Z" style="fill: rgb(0, 255, 136); transform-origin: 392.075px 254.625px;" id="el5vj016yu3j9" class="animable"></path></g></g><path d="M392.07,119.89a54.92,54.92,0,0,0-54.92,54.93c0,43.6,36,50.84,36,68.42,0,2.8,1.85,5.6,5.55,7.73,7.4,4.28,19.4,4.28,26.8,0,3.7-2.13,5.55-4.93,5.55-7.73h0c0-17.58,36-24.82,36-68.42A54.93,54.93,0,0,0,392.07,119.89Z" style="fill: rgb(0, 255, 136); transform-origin: 392.1px 187.035px;" id="elmdf5pz84mm" class="animable"></path><g id="eljgsh0he0p4f"><path d="M392.07,119.89a54.92,54.92,0,0,0-54.92,54.93c0,43.6,36,50.84,36,68.42,0,2.8,1.85,5.6,5.55,7.73,7.4,4.28,19.4,4.28,26.8,0,3.7-2.13,5.55-4.93,5.55-7.73h0c0-17.58,36-24.82,36-68.42A54.93,54.93,0,0,0,392.07,119.89Z" style="fill: rgb(255, 255, 255); opacity: 0.3; mix-blend-mode: screen; transform-origin: 392.1px 187.035px;" class="animable"></path></g><g id="elntrgrhcxn6"><path d="M381.1,249.57c-6.06-3.5-6.06-9.17,0-12.67s15.89-3.5,21.95,0,6.06,9.17,0,12.67S387.16,253.07,381.1,249.57Z" style="opacity: 0.1; transform-origin: 392.075px 243.235px;" class="animable"></path></g><g id="elbs8tsdryelf"><path d="M354.57,155.91c-8.9,0-15.56,18.05-7.93,39s20,27.09,28.53,24.4,10.46-24.26,3.88-40.26C371.48,160.69,362.77,155.9,354.57,155.91Z" style="fill: rgb(255, 255, 255); opacity: 0.3; mix-blend-mode: screen; transform-origin: 363.144px 187.907px;" class="animable"></path></g><path d="M392.85,187.73a6.77,6.77,0,0,1-3.37-1c-4.36-2.52-7.92-9.29-7.92-15.08,0-3.19,1.08-5.64,3-6.73,1.6-.93,3.61-.78,5.66.4,4.37,2.52,7.92,9.29,7.92,15.08,0,3.19-1.08,5.64-3,6.73A4.53,4.53,0,0,1,392.85,187.73Zm-6-22a3.23,3.23,0,0,0-1.6.41c-1.44.84-2.27,2.85-2.27,5.52,0,5.35,3.25,11.57,7.23,13.87a4.22,4.22,0,0,0,4.25.4c1.44-.84,2.27-2.85,2.27-5.52,0-5.35-3.24-11.57-7.23-13.87h0A5.35,5.35,0,0,0,386.83,165.72Zm5,18.15a4.66,4.66,0,0,1-2.3-.68h0c-3-1.71-5.26-6.1-5.26-10,0-2.17.74-3.84,2-4.59a3.85,3.85,0,0,1,3.92.26c2.95,1.71,5.27,6.1,5.27,10,0,2.16-.75,3.83-2,4.59A3.26,3.26,0,0,1,391.79,183.87Zm-1.6-1.9a2.54,2.54,0,0,0,2.51.26c.86-.49,1.35-1.72,1.35-3.37,0-3.39-2.05-7.33-4.57-8.78a2.51,2.51,0,0,0-2.51-.26c-.86.49-1.35,1.72-1.35,3.37,0,3.39,2.05,7.33,4.57,8.78Z" style="fill: rgb(69, 90, 100); transform-origin: 389.85px 176.023px;" id="elhxewesi43pn" class="animable"></path><path d="M399.89,172.28a2.05,2.05,0,0,1-1.06-.31,4.93,4.93,0,0,1-2.12-4,2.26,2.26,0,0,1,1-2,1.84,1.84,0,0,1,1.86.1,4.93,4.93,0,0,1,2.12,4,2.26,2.26,0,0,1-1,2A1.59,1.59,0,0,1,399.89,172.28Zm-1.41-5.14a.2.2,0,0,0-.11,0c-.13.07-.26.36-.26.82a3.62,3.62,0,0,0,1.42,2.78.54.54,0,0,0,.46.09c.13-.08.26-.36.26-.82a3.58,3.58,0,0,0-1.42-2.78A.82.82,0,0,0,398.48,167.14Z" style="fill: rgb(69, 90, 100); transform-origin: 399.2px 169.022px;" id="elv1x8hkbynbp" class="animable"></path><path d="M396.09,246.66h0a.7.7,0,0,1-.68-.72c0-.15.46-14.23,2.71-23.63a16,16,0,0,1,2.82-6.08,28.16,28.16,0,0,1-4.84-3.11,25.54,25.54,0,0,1-6.32-7.3,14.86,14.86,0,0,1-8.46.56,77.05,77.05,0,0,1,2.26,8.31,124.25,124.25,0,0,1,2.94,25.64.69.69,0,0,1-.72.69.7.7,0,0,1-.69-.72A122.26,122.26,0,0,0,382.18,215a75.66,75.66,0,0,0-2.53-9.11,15.18,15.18,0,0,1-8.65-8c-.61-1.64-.44-3,.45-3.69a2.17,2.17,0,0,1,2.19-.31c2.32.83,4.91,4.94,7.09,10.88a12.5,12.5,0,0,0,4.31.59,13,13,0,0,0,4.06-.77,16.37,16.37,0,0,1-1.83-7.18v-.84a1.06,1.06,0,0,0-.46-.71l-9.43-5.44a8.7,8.7,0,0,1-3.7-7v-35A3.63,3.63,0,0,1,375.2,145a2.83,2.83,0,0,1,2.9.17l26.27,15.17a8.68,8.68,0,0,1,3.71,7v35a3.64,3.64,0,0,1-1.51,3.32,2.83,2.83,0,0,1-2.9-.18l-8.89-5.13a7.38,7.38,0,0,1-3.73,4.76A23.76,23.76,0,0,0,397,212a26,26,0,0,0,4.91,3.12,10.55,10.55,0,0,1,4.78-2.88c2.43-.66,4.7-.21,6.07,1.22a2.25,2.25,0,0,1,.17,3.28c-1.54,1.71-5.64,2.21-10.66.08a14.47,14.47,0,0,0-2.76,5.81c-2.22,9.25-2.67,23.2-2.68,23.34A.7.7,0,0,1,396.09,246.66Zm7.17-30.93c4.26,1.66,7.55,1.23,8.59.08.25-.27.5-.7-.14-1.37a4.8,4.8,0,0,0-4.69-.84A9.15,9.15,0,0,0,403.26,215.73Zm-8.63-16.79a1.42,1.42,0,0,1,.72.21l9,5.21a1.53,1.53,0,0,0,1.49.17,2.36,2.36,0,0,0,.81-2.1v-35a7.37,7.37,0,0,0-3-5.8l-26.28-15.17a1.52,1.52,0,0,0-1.49-.18,2.39,2.39,0,0,0-.8,2.1v35a7.38,7.38,0,0,0,3,5.8l9.42,5.43a2.45,2.45,0,0,1,1.16,1.93v.85a15.11,15.11,0,0,0,1.71,6.57,5.87,5.87,0,0,0,3-3.88,1.34,1.34,0,0,1,.73-1A1.21,1.21,0,0,1,394.63,198.94Zm-21.85-3.83a.69.69,0,0,0-.46.17c-.37.29-.37,1.1,0,2.1A13.46,13.46,0,0,0,379,204c-2-5.17-4.22-8.28-5.81-8.85A1,1,0,0,0,372.78,195.11Z" style="fill: rgb(69, 90, 100); transform-origin: 392.099px 195.67px;" id="elz3pn9w3gv7m" class="animable"></path><path d="M404.11,201.37a.64.64,0,0,1-.35-.1L377.31,186a.69.69,0,0,1-.35-.61V150.12a.71.71,0,0,1,.35-.61.73.73,0,0,1,.7,0l26.45,15.28a.68.68,0,0,1,.35.6v35.28a.68.68,0,0,1-.35.6A.64.64,0,0,1,404.11,201.37ZM378.36,185l25.05,14.46V165.8l-25.05-14.46Z" style="fill: rgb(69, 90, 100); transform-origin: 390.885px 175.395px;" id="el2z4lfgew9jn" class="animable"></path></g><g id="freepik--lightening--inject-1--inject-170" class="animable" style="transform-origin: 249.68px 154.458px;"><g id="el1kqb3t7sbayk"><circle cx="249.66" cy="218.95" r="13.92" style="fill: rgb(69, 90, 100); transform-origin: 249.66px 218.95px; transform: rotate(-45deg);" class="animable"></circle></g><path d="M271,200.63a17.7,17.7,0,0,1,.27-3.41c.81-3.73-1.25-7.62-6.21-10.48-8.53-4.93-22.36-4.93-30.89,0-5,2.86-7,6.75-6.21,10.48a17.7,17.7,0,0,1,.27,3.41,7.38,7.38,0,0,0,.18,1.47,17.26,17.26,0,0,1,.45,3.28,7.15,7.15,0,0,0,.22,1.51,15.2,15.2,0,0,1,.4,3.08,6.48,6.48,0,0,0,.2,1.37,15.94,15.94,0,0,1,.4,3.08c.13,2.79,2,5.55,5.71,7.67,7.64,4.41,20,4.41,27.65,0,3.68-2.12,5.58-4.88,5.71-7.67a16,16,0,0,1,.41-3.08,7.17,7.17,0,0,0,.19-1.37,14.54,14.54,0,0,1,.41-3.08,7.84,7.84,0,0,0,.21-1.51,17.26,17.26,0,0,1,.45-3.28A6.72,6.72,0,0,0,271,200.63Z" style="fill: rgb(0, 255, 136); transform-origin: 249.617px 204.22px;" id="elchp7e7mxhdi" class="animable"></path><g id="eldiyin42hfwn"><path d="M271,200.63a17.7,17.7,0,0,1,.27-3.41c.81-3.73-1.25-7.62-6.21-10.48-8.53-4.93-22.36-4.93-30.89,0-5,2.86-7,6.75-6.21,10.48a17.7,17.7,0,0,1,.27,3.41,7.38,7.38,0,0,0,.18,1.47,17.26,17.26,0,0,1,.45,3.28,7.15,7.15,0,0,0,.22,1.51,15.2,15.2,0,0,1,.4,3.08,6.48,6.48,0,0,0,.2,1.37,15.94,15.94,0,0,1,.4,3.08c.13,2.79,2,5.55,5.71,7.67,7.64,4.41,20,4.41,27.65,0,3.68-2.12,5.58-4.88,5.71-7.67a16,16,0,0,1,.41-3.08,7.17,7.17,0,0,0,.19-1.37,14.54,14.54,0,0,1,.41-3.08,7.84,7.84,0,0,0,.21-1.51,17.26,17.26,0,0,1,.45-3.28A6.72,6.72,0,0,0,271,200.63Z" style="fill: rgb(255, 255, 255); opacity: 0.8; transform-origin: 249.617px 204.22px;" class="animable"></path></g><g id="elt6jr0cyyax"><g style="opacity: 0.2; transform-origin: 249.655px 209.26px;" class="animable"><path d="M264.35,213.64a32.5,32.5,0,0,1-29.38,0,13.11,13.11,0,0,1-5.06-4.77,12.16,12.16,0,0,1-.79-2h0a15.1,15.1,0,0,1,.4,3.07,6.48,6.48,0,0,0,.2,1.37.9.9,0,0,0,0,.16,13.48,13.48,0,0,0,5.66,6.43,31.56,31.56,0,0,0,28.5,0,13.49,13.49,0,0,0,5.65-6.42s0-.12,0-.17a7.17,7.17,0,0,0,.19-1.37,14.54,14.54,0,0,1,.41-3.08,11.2,11.2,0,0,1-.8,2A13.08,13.08,0,0,1,264.35,213.64Z" style="fill: rgb(0, 255, 136); transform-origin: 249.625px 214.08px;" id="elru61kw104tj" class="animable"></path><path d="M270.86,202.1a6.72,6.72,0,0,0,.18-1.47,17.7,17.7,0,0,1,.27-3.41,11.73,11.73,0,0,1-.69,2,13.38,13.38,0,0,1-5.51,5.37,34.11,34.11,0,0,1-30.9,0,13.32,13.32,0,0,1-5.51-5.37,11.38,11.38,0,0,1-.7-2h0a17.53,17.53,0,0,1,.27,3.4,7.38,7.38,0,0,0,.18,1.47s0,.07,0,.1a13.85,13.85,0,0,0,6.05,7,33.55,33.55,0,0,0,30.28,0,13.88,13.88,0,0,0,6-7A.5.5,0,0,0,270.86,202.1Z" style="fill: rgb(0, 255, 136); transform-origin: 249.655px 205.01px;" id="elxazm6dbzwv" class="animable"></path></g></g><path d="M249.66,70.28a54.92,54.92,0,0,0-54.93,54.92c0,43.61,36,50.85,36,68.42,0,2.8,1.85,5.6,5.55,7.74,7.4,4.27,19.4,4.27,26.8,0,3.7-2.14,5.55-4.94,5.55-7.74h0c0-17.57,36-24.81,36-68.42A54.92,54.92,0,0,0,249.66,70.28Z" style="fill: rgb(0, 255, 136); transform-origin: 249.68px 137.421px;" id="elsj0st059w6" class="animable"></path><g id="el91gq7y7wfok"><path d="M249.66,70.28a54.92,54.92,0,0,0-54.93,54.92c0,43.61,36,50.85,36,68.42,0,2.8,1.85,5.6,5.55,7.74,7.4,4.27,19.4,4.27,26.8,0,3.7-2.14,5.55-4.94,5.55-7.74h0c0-17.57,36-24.81,36-68.42A54.92,54.92,0,0,0,249.66,70.28Z" style="fill: rgb(255, 255, 255); opacity: 0.3; mix-blend-mode: screen; transform-origin: 249.68px 137.421px;" class="animable"></path></g><g id="el97uh87vvblj"><path d="M238.68,200c-6.06-3.5-6.06-9.17,0-12.67s15.89-3.5,21.95,0,6.06,9.17,0,12.67S244.74,203.46,238.68,200Z" style="opacity: 0.1; transform-origin: 249.655px 193.658px;" class="animable"></path></g><g id="eldmfeqy04ut"><path d="M212.16,106.3c-8.91,0-15.57,18-7.94,39s20,27.09,28.53,24.4,10.46-24.26,3.88-40.26C229.06,111.08,220.35,106.29,212.16,106.3Z" style="fill: rgb(255, 255, 255); opacity: 0.3; mix-blend-mode: screen; transform-origin: 220.724px 138.299px;" class="animable"></path></g><path d="M249.79,156.9h0a.68.68,0,0,1-.57-.3c-2.94-4.08-4.31-8.7-3.53-11.8a28.92,28.92,0,0,1-4,.27A26,26,0,0,1,227.64,141a.7.7,0,0,1,.46-1.29,17.19,17.19,0,0,0,11.24-2.52,9.62,9.62,0,0,1-7.11-6.47.7.7,0,0,1,.14-.68.71.71,0,0,1,.66-.23,6.21,6.21,0,0,0,.85.12,9.67,9.67,0,0,1-4.82-8.47.7.7,0,0,1,.36-.59.73.73,0,0,1,.69,0,7.72,7.72,0,0,0,1.38.61,9.65,9.65,0,0,1-1.05-11.16.71.71,0,0,1,1.15-.09,24.73,24.73,0,0,0,17,9,9.65,9.65,0,0,1,9.55-10.91,9.67,9.67,0,0,1,6.76,2.76,17.28,17.28,0,0,0,5.08-2,.69.69,0,0,1,.79,0,.71.71,0,0,1,.24.77,9.66,9.66,0,0,1-2,3.49,16.92,16.92,0,0,0,2.26-.81.69.69,0,0,1,.82.19.71.71,0,0,1,0,.84,18.87,18.87,0,0,1-4.33,4.58,26.27,26.27,0,0,1-15,24.61c2.46,2.5,1.42,8.48-2.43,13.85A.7.7,0,0,1,249.79,156.9Zm-4-13.51a1.36,1.36,0,0,1,1,.46,1.31,1.31,0,0,1,.29,1.21c-.67,2.47.41,6.36,2.71,9.89,3.23-4.94,3.58-9.64,2-11.3a1.32,1.32,0,0,1-.36-1.18,1.37,1.37,0,0,1,.78-1h0a25.16,25.16,0,0,0,14.23-23.65.69.69,0,0,1,.29-.6,17.32,17.32,0,0,0,2.84-2.57,18,18,0,0,1-3,.61.67.67,0,0,1-.74-.47.69.69,0,0,1,.3-.82,8.3,8.3,0,0,0,2.81-2.78,18.63,18.63,0,0,1-4.06,1.29.72.72,0,0,1-.65-.2,8.23,8.23,0,0,0-14,7.5.71.71,0,0,1-.15.61.67.67,0,0,1-.57.25,26.12,26.12,0,0,1-18.23-8.77,8.25,8.25,0,0,0,3,10.08.7.7,0,0,1,.28.8.72.72,0,0,1-.69.49,9.66,9.66,0,0,1-3.27-.69,8.31,8.31,0,0,0,6.55,7.05.71.71,0,0,1,.05,1.37,9.73,9.73,0,0,1-3.13.32,8.23,8.23,0,0,0,7.27,4.66.69.69,0,0,1,.65.48.7.7,0,0,1-.23.77,18.56,18.56,0,0,1-10.78,4,24.6,24.6,0,0,0,10.81,2.5,27.05,27.05,0,0,0,3.85-.27Zm6.7-1.27.29.64h0Zm0,0h0Z" style="fill: rgb(69, 90, 100); transform-origin: 249.767px 132.61px;" id="elm0122v5i27" class="animable"></path><path d="M231.53,166.83c-4.45,0-7.85-1.69-8.89-3.78a2.59,2.59,0,0,1,.62-3.24,4.71,4.71,0,0,1,3.83-1.1c2.87.37,6,2.8,8.58,6.67a.7.7,0,0,1,.06.66.68.68,0,0,1-.51.42A18.68,18.68,0,0,1,231.53,166.83Zm-5.18-6.76a3.18,3.18,0,0,0-2.16.79h0a1.19,1.19,0,0,0-.29,1.57c.83,1.67,4.51,3.6,10,2.84-2.19-3-4.75-4.88-7-5.16A3.6,3.6,0,0,0,226.35,160.07Zm-2.62.27h0Z" style="fill: rgb(69, 90, 100); transform-origin: 229.054px 162.741px;" id="elyglsfodv9s" class="animable"></path><path d="M257.31,193.57a.7.7,0,0,1-.7-.68A59,59,0,0,1,260.55,172a33.72,33.72,0,0,1,2.81-5.78,24.63,24.63,0,0,1-5.41-2.07,24.91,24.91,0,0,1-8.16-6.8,25.07,25.07,0,0,1-13.57,8.87A33.72,33.72,0,0,1,239,172,59.28,59.28,0,0,1,243,192.89a.7.7,0,0,1-.72.67.69.69,0,0,1-.68-.72,59.26,59.26,0,0,0-3.85-20.33,32,32,0,0,0-3.22-6.35.7.7,0,0,1-.06-.66.72.72,0,0,1,.51-.42,22.45,22.45,0,0,0,6-2.16,23.56,23.56,0,0,0,8.24-7.13.72.72,0,0,1,1.14,0,23.53,23.53,0,0,0,8.23,7.13,22.63,22.63,0,0,0,6,2.16.72.72,0,0,1,.51.42.7.7,0,0,1-.06.66,31.72,31.72,0,0,0-3.22,6.35A59,59,0,0,0,258,192.84a.71.71,0,0,1-.68.73Z" style="fill: rgb(69, 90, 100); transform-origin: 249.785px 174.54px;" id="eljrxl15m43zd" class="animable"></path><path d="M268.05,166.83a18.61,18.61,0,0,1-3.69-.37.7.7,0,0,1-.52-.42.71.71,0,0,1,.07-.66c2.58-3.87,5.71-6.3,8.58-6.67a4.72,4.72,0,0,1,3.83,1.1h0a2.59,2.59,0,0,1,.62,3.24C275.9,165.14,272.5,166.83,268.05,166.83Zm-2.34-1.56c5.45.76,9.14-1.17,10-2.84a1.2,1.2,0,0,0-.3-1.57h0a3.24,3.24,0,0,0-2.71-.75C270.45,160.39,267.9,162.3,265.71,165.27Z" style="fill: rgb(69, 90, 100); transform-origin: 270.524px 162.741px;" id="elpbjvlom746" class="animable"></path></g><g id="freepik--Light--inject-1--inject-170" class="animable" style="transform-origin: 108.062px 160.595px;"><path d="M145.46,233.29a1.87,1.87,0,0,1-1.3-3.21c10.42-10.13,26.18-25.42,26.18-55.26a62.42,62.42,0,1,0-124.83,0c0,29.84,15.76,45.13,26.18,55.26a1.87,1.87,0,1,1-2.61,2.68C58.2,222.2,41.76,206.24,41.76,174.82a66.17,66.17,0,1,1,132.33,0c0,31.42-16.44,47.38-27.32,57.94A1.86,1.86,0,0,1,145.46,233.29Z" style="fill: rgb(245, 245, 245); transform-origin: 107.925px 170.565px;" id="elcr1oh7mz3gt" class="animable"></path><path d="M107.93,103.35a1.88,1.88,0,0,1-1.88-1.87V89.64a1.88,1.88,0,0,1,3.75,0v11.84A1.87,1.87,0,0,1,107.93,103.35Z" style="fill: rgb(245, 245, 245); transform-origin: 107.925px 95.6235px;" id="elqjc0i3bffqc" class="animable"></path><path d="M71.26,113.18a1.86,1.86,0,0,1-1.62-.94L63.72,102A1.87,1.87,0,1,1,67,100.12l5.92,10.25a1.87,1.87,0,0,1-1.62,2.81Z" style="fill: rgb(245, 245, 245); transform-origin: 68.3216px 106.175px;" id="eli3alw9ghy7r" class="animable"></path><path d="M44.41,140a1.86,1.86,0,0,1-.93-.25l-10.26-5.92a1.87,1.87,0,1,1,1.88-3.24l10.25,5.92a1.87,1.87,0,0,1-.94,3.49Z" style="fill: rgb(245, 245, 245); transform-origin: 39.2865px 135.169px;" id="el8mg36uadwp5" class="animable"></path><path d="M34.59,176.69H22.75a1.88,1.88,0,0,1,0-3.75H34.59a1.88,1.88,0,0,1,0,3.75Z" style="fill: rgb(245, 245, 245); transform-origin: 28.67px 174.815px;" id="elgkx9wb7t3ye" class="animable"></path><path d="M34.16,219.28a1.88,1.88,0,0,1-.94-3.5l10.26-5.92a1.87,1.87,0,0,1,1.87,3.25L35.1,219A1.89,1.89,0,0,1,34.16,219.28Z" style="fill: rgb(245, 245, 245); transform-origin: 39.2918px 214.445px;" id="elb81xtmdi7k6" class="animable"></path><path d="M181.69,219.28a1.89,1.89,0,0,1-.94-.25l-10.25-5.92a1.87,1.87,0,1,1,1.87-3.25l10.26,5.92a1.88,1.88,0,0,1-.94,3.5Z" style="fill: rgb(245, 245, 245); transform-origin: 176.556px 214.444px;" id="elz61x6chrpqi" class="animable"></path><path d="M193.1,176.69H181.26a1.88,1.88,0,0,1,0-3.75H193.1a1.88,1.88,0,1,1,0,3.75Z" style="fill: rgb(245, 245, 245); transform-origin: 187.317px 174.815px;" id="elquc2j0udj3s" class="animable"></path><path d="M171.44,140a1.87,1.87,0,0,1-.94-3.49l5.13-3a1.87,1.87,0,1,1,1.87,3.24l-5.13,3A1.83,1.83,0,0,1,171.44,140Z" style="fill: rgb(245, 245, 245); transform-origin: 174.001px 136.629px;" id="el8efgkhmonv" class="animable"></path><path d="M144.59,113.18a1.83,1.83,0,0,1-.93-.25,1.87,1.87,0,0,1-.69-2.56l5.92-10.25a1.87,1.87,0,0,1,3.25,1.87l-5.92,10.25A1.89,1.89,0,0,1,144.59,113.18Z" style="fill: rgb(245, 245, 245); transform-origin: 147.554px 106.18px;" id="el3vihusi7c5n" class="animable"></path></g><g id="freepik--light--inject-1--inject-170" class="animable" style="transform-origin: 391.938px 160.594px;"><path d="M429.61,233.29a1.87,1.87,0,0,1-1.3-3.21c10.42-10.13,26.18-25.42,26.18-55.26a62.42,62.42,0,1,0-124.83,0c0,29.84,15.75,45.13,26.18,55.26a1.87,1.87,0,1,1-2.61,2.68c-10.88-10.56-27.32-26.52-27.32-57.94a66.17,66.17,0,1,1,132.33,0c0,31.42-16.44,47.38-27.33,57.94A1.82,1.82,0,0,1,429.61,233.29Z" style="fill: rgb(245, 245, 245); transform-origin: 392.075px 170.565px;" id="elvdfeikwqxoh" class="animable"></path><path d="M392.07,103.35a1.87,1.87,0,0,1-1.87-1.87V89.64a1.88,1.88,0,0,1,3.75,0v11.84A1.88,1.88,0,0,1,392.07,103.35Z" style="fill: rgb(245, 245, 245); transform-origin: 392.075px 95.6235px;" id="elferf1jiiq38" class="animable"></path><path d="M428.74,113.18a1.83,1.83,0,0,1-.93-.25,1.87,1.87,0,0,1-.69-2.56L433,100.12a1.87,1.87,0,1,1,3.24,1.87l-5.92,10.25A1.86,1.86,0,0,1,428.74,113.18Z" style="fill: rgb(245, 245, 245); transform-origin: 431.679px 106.182px;" id="elirit2nvqakm" class="animable"></path><path d="M455.59,140a1.87,1.87,0,0,1-.94-3.49l10.25-5.92a1.87,1.87,0,0,1,1.88,3.24l-10.26,5.92A1.86,1.86,0,0,1,455.59,140Z" style="fill: rgb(245, 245, 245); transform-origin: 460.714px 135.169px;" id="eld3f8u2ewilc" class="animable"></path><path d="M477.25,176.69H465.41a1.88,1.88,0,0,1,0-3.75h11.84a1.88,1.88,0,0,1,0,3.75Z" style="fill: rgb(245, 245, 245); transform-origin: 471.33px 174.815px;" id="eloaoe8d441mc" class="animable"></path><path d="M465.84,219.28a1.89,1.89,0,0,1-.94-.25l-10.25-5.92a1.87,1.87,0,1,1,1.87-3.25l10.26,5.92a1.88,1.88,0,0,1-.94,3.5Z" style="fill: rgb(245, 245, 245); transform-origin: 460.706px 214.444px;" id="elsjpxaklvl5" class="animable"></path><path d="M318.31,219.28a1.88,1.88,0,0,1-.94-3.5l10.26-5.92a1.87,1.87,0,0,1,1.87,3.25L319.25,219A1.89,1.89,0,0,1,318.31,219.28Z" style="fill: rgb(245, 245, 245); transform-origin: 323.44px 214.446px;" id="elf6wf11s1d2" class="animable"></path><path d="M318.74,176.69H306.9a1.88,1.88,0,1,1,0-3.75h11.84a1.88,1.88,0,0,1,0,3.75Z" style="fill: rgb(245, 245, 245); transform-origin: 312.683px 174.815px;" id="elxjn8b1pp24" class="animable"></path><path d="M328.56,140a1.83,1.83,0,0,1-.93-.25l-5.13-3a1.87,1.87,0,1,1,1.87-3.24l5.13,3a1.87,1.87,0,0,1-.94,3.49Z" style="fill: rgb(245, 245, 245); transform-origin: 326px 136.63px;" id="elbzc69n1l2oq" class="animable"></path><path d="M355.41,113.18a1.89,1.89,0,0,1-1.63-.94L347.86,102a1.87,1.87,0,1,1,3.25-1.87L357,110.37a1.88,1.88,0,0,1-.69,2.56A1.83,1.83,0,0,1,355.41,113.18Z" style="fill: rgb(245, 245, 245); transform-origin: 352.428px 106.184px;" id="elcdpmvyrk7ui" class="animable"></path></g><g id="freepik--light--inject-1--inject-170" class="animable" style="transform-origin: 250px 109.32px;"><path d="M287.54,182.08a1.87,1.87,0,0,1-1.31-3.21c10.43-10.13,26.19-25.42,26.19-55.26a62.42,62.42,0,0,0-124.84,0c0,29.84,15.76,45.13,26.19,55.26l-2.61,2.68,1.3-1.34-1.3,1.34C200.28,171,183.83,155,183.83,123.61a66.17,66.17,0,1,1,132.33,0c0,31.42-16.44,47.38-27.32,57.94A1.82,1.82,0,0,1,287.54,182.08Z" style="fill: rgb(245, 245, 245); transform-origin: 249.995px 119.353px;" id="el10m94t6c3ai" class="animable"></path><path d="M250,52.14a1.87,1.87,0,0,1-1.87-1.87V38.43a1.87,1.87,0,0,1,3.74,0V50.27A1.87,1.87,0,0,1,250,52.14Z" style="fill: rgb(245, 245, 245); transform-origin: 250px 44.35px;" id="elmcvfno01xt" class="animable"></path><path d="M213.33,62a1.88,1.88,0,0,1-1.62-.94l-5.92-10.25A1.87,1.87,0,0,1,209,48.9L215,59.16A1.87,1.87,0,0,1,213.33,62Z" style="fill: rgb(245, 245, 245); transform-origin: 210.423px 55.0336px;" id="el5mgsp6wnzgq" class="animable"></path><path d="M186.49,88.81a1.89,1.89,0,0,1-.94-.25L175.3,82.64a1.87,1.87,0,1,1,1.87-3.24l10.26,5.92a1.87,1.87,0,0,1-.94,3.49Z" style="fill: rgb(245, 245, 245); transform-origin: 181.365px 83.9798px;" id="elfim9x0mp6b" class="animable"></path><path d="M313.51,88.81a1.88,1.88,0,0,1-1.62-.94,1.86,1.86,0,0,1,.68-2.55l10.26-5.92a1.87,1.87,0,1,1,1.87,3.24l-10.25,5.92A1.89,1.89,0,0,1,313.51,88.81Z" style="fill: rgb(245, 245, 245); transform-origin: 318.636px 83.9798px;" id="el62pzdzvxiz4" class="animable"></path><path d="M286.67,62a1.87,1.87,0,0,1-1.62-2.81L291,48.9a1.87,1.87,0,0,1,3.24,1.88L288.29,61A1.88,1.88,0,0,1,286.67,62Z" style="fill: rgb(245, 245, 245); transform-origin: 289.644px 54.9844px;" id="el2112eovrr29" class="animable"></path></g></g><g id="freepik--social-icons--inject-1--inject-170" class="animable" style="transform-origin: 252.841px 82.6057px;"><g id="freepik--social-icons--inject-1--inject-170" class="animable" style="transform-origin: 252.841px 82.6057px;"><path d="M164.64,106.55s1.3-4,1.36-4.58a18.22,18.22,0,0,0-.95-3.33c-.12-.43,1.87-1.18,3,.2a6.57,6.57,0,0,1,1.55,4.21l5-1.43a1.6,1.6,0,0,1,1.93,1.14,1.75,1.75,0,0,1-.4,1.68,1.45,1.45,0,0,1,1.4,1.12,1.63,1.63,0,0,1-.78,1.85,1.94,1.94,0,0,1,.66,1.09,1.77,1.77,0,0,1-1,1.85,3.24,3.24,0,0,1,.54,1.07,1.8,1.8,0,0,1-1.39,2.08l-8.22,2.35Z" style="fill: rgb(0, 255, 136); transform-origin: 171.113px 106.948px;" id="el9196ihslrwg" class="animable"></path><g id="eljczxdluydah"><rect x="161.27" y="106.92" width="3.73" height="11.26" style="fill: rgb(0, 255, 136); transform-origin: 163.135px 112.55px; transform: rotate(-15.7086deg);" class="animable"></rect></g><path d="M311.61,54.31s2.57-3.31,2.83-3.85a18.07,18.07,0,0,0,.23-3.46c0-.45,2.16-.48,2.72,1.19a6.57,6.57,0,0,1,0,4.48l5.16.34A1.59,1.59,0,0,1,324,54.73a1.74,1.74,0,0,1-.93,1.45A1.44,1.44,0,0,1,324,57.7a1.62,1.62,0,0,1-1.35,1.48,2,2,0,0,1,.25,1.25,1.77,1.77,0,0,1-1.55,1.41,3.26,3.26,0,0,1,.15,1.19,1.79,1.79,0,0,1-2,1.49L311,64Z" style="fill: rgb(0, 255, 136); transform-origin: 317.505px 55.636px;" id="el5uww9ux8u3d" class="animable"></path><g id="ela5swhhoknor"><rect x="302.54" y="57.58" width="11.26" height="3.73" style="fill: rgb(0, 255, 136); transform-origin: 308.17px 59.445px; transform: rotate(-86.24deg);" class="animable"></rect></g><path d="M413.66,77.28s1.64-3.85,1.76-4.44a17.65,17.65,0,0,0-.67-3.4c-.08-.44,2-1,2.94.45a6.53,6.53,0,0,1,1.18,4.33l5.08-1a1.59,1.59,0,0,1,1.82,1.3,1.74,1.74,0,0,1-.53,1.64,1.44,1.44,0,0,1,1.29,1.23,1.63,1.63,0,0,1-.94,1.78,1.94,1.94,0,0,1,.57,1.14A1.78,1.78,0,0,1,425,82.08a3,3,0,0,1,.44,1.11,1.78,1.78,0,0,1-1.55,2l-8.4,1.64Z" style="fill: rgb(0, 255, 136); transform-origin: 420.108px 77.8928px;" id="el6b1biy0vjio" class="animable"></path><g id="elzir9bbioxl"><rect x="409.78" y="77.5" width="3.73" height="11.26" style="fill: rgb(0, 255, 136); transform-origin: 411.645px 83.13px; transform: rotate(-11.02deg);" class="animable"></rect></g><path d="M331.26,117.09l-2.13-1.21c-2.79-1.59-6.12-4.22-6.12-7.67a4.24,4.24,0,0,1,8.22-1.48,4.25,4.25,0,0,1,8.23,1.48c0,3.39-3.31,6-6.09,7.65Z" style="fill: rgb(0, 255, 136); transform-origin: 331.235px 110.521px;" id="elkklv7v5y9ve" class="animable"></path><path d="M190.19,62.88l-2.44,0c-3.21.07-7.42-.46-9.2-3.43a4.25,4.25,0,0,1,6.3-5.49,4.25,4.25,0,0,1,7.81-3c1.75,2.91.26,6.88-1.29,9.7Z" style="fill: rgb(0, 255, 136); transform-origin: 185.705px 55.8983px;" id="elr8xf6r6vhs" class="animable"></path><path d="M86.37,85.51l-2-1.44c-2.59-1.9-5.6-4.88-5.21-8.32a4.25,4.25,0,0,1,8.34-.53,4.24,4.24,0,0,1,8,2.4c-.38,3.37-4,5.62-6.92,6.91Z" style="fill: rgb(0, 255, 136); transform-origin: 87.3275px 78.7601px;" id="el171qzvghfc7" class="animable"></path></g></g><g id="freepik--character-2--inject-1--inject-170" class="animable" style="transform-origin: 303.536px 326.527px;"><g id="freepik--Character--inject-1--inject-170" class="animable" style="transform-origin: 303.536px 326.527px;"><path d="M331.28,258.34c4-.89,8.43,2,11.45,8.27,2.9,6.06,11.26,21.31,11.46,25.59.2,4.44-17.87,18.25-17.36,18,.15-.08-4-8.55-4-8.55l9.94-9.91-6-11.75Z" style="fill: rgb(255, 168, 167); transform-origin: 342.736px 284.193px;" id="elitmc5nf2l8o" class="animable"></path><path d="M329.19,257.39c3.34-.41,9.4.85,11.72,4.87,3.35,5.82,6.15,11.18,10.5,19.27a13.5,13.5,0,0,1-11.28,6.82L336.27,281Z" style="fill: rgb(0, 255, 136); transform-origin: 340.3px 272.833px;" id="eloe0b8h1dqh" class="animable"></path><path d="M287.94,426.79c-.37,1.85.3,2.82,2.69,4.2s6.14,1.85,10.09.71,5.83-2.88,7.47-3.29,5.7-.44,7.32-.92,1.6-1.3,1.59-3.25Z" style="fill: rgb(69, 90, 100); transform-origin: 302.473px 428.29px;" id="el68uvvuzu2yk" class="animable"></path><path d="M315.51,414.84s.77,2.34,1.19,4.38c.33,1.62.8,4.33.23,5.55s-2.78,2-6.22,2c-2.22,0-5.69,1.49-8.07,2.82a12.37,12.37,0,0,1-7.71,1.06c-3.05-.35-6.22-2.13-6.71-3.39s-.63-2.22,6.58-5.29c.06,0,8.36-3.09,11.85-6.94Z" style="fill: rgb(0, 255, 136); transform-origin: 302.61px 422.849px;" id="el9klwh7aoytf" class="animable"></path><g id="elf4q88xrhwop"><g style="opacity: 0.3; transform-origin: 302.61px 422.849px;" class="animable"><path d="M315.51,414.84s.77,2.34,1.19,4.38c.33,1.62.8,4.33.23,5.55s-2.78,2-6.22,2c-2.22,0-5.69,1.49-8.07,2.82a12.37,12.37,0,0,1-7.71,1.06c-3.05-.35-6.22-2.13-6.71-3.39s-.63-2.22,6.58-5.29c.06,0,8.36-3.09,11.85-6.94Z" id="elnymb7xp53p9" class="animable" style="transform-origin: 302.61px 422.849px;"></path></g></g><path d="M301.66,430.05s-.62-6.19-5.65-8c-4.54-1.6-8.51,1.77-8.07,4.7C288.24,428.76,293.77,433.23,301.66,430.05Z" style="fill: rgb(250, 250, 250); transform-origin: 294.783px 426.398px;" id="elmupxo6b79qo" class="animable"></path><path d="M297.29,420.93a5.84,5.84,0,0,1,3.43,1.53c1.45,1.22,1.49,2,1.49,2a.76.76,0,0,0,1.31-.63s-.34-3.12-4.44-3.76A1.67,1.67,0,0,0,297.29,420.93Z" style="fill: rgb(250, 250, 250); transform-origin: 300.409px 422.373px;" id="elrbzww8pxeq9" class="animable"></path><path d="M300.16,419.56a5.14,5.14,0,0,1,3.47,1.37c1.45,1.22,1.46,2.18,1.46,2.18a.76.76,0,0,0,1.31-.63s-.34-3.12-4.45-3.75A1.65,1.65,0,0,0,300.16,419.56Z" style="fill: rgb(250, 250, 250); transform-origin: 303.284px 421.025px;" id="elsb2bxf6quk8" class="animable"></path><path d="M303,417.93a5.15,5.15,0,0,1,3.55,1.13c1.53,1.12,1.6,2.08,1.6,2.08a.77.77,0,0,0,1.27-.72s-.55-3.09-4.69-3.44A1.66,1.66,0,0,0,303,417.93Z" style="fill: rgb(250, 250, 250); transform-origin: 306.217px 419.151px;" id="el86gknqtfxux" class="animable"></path><path d="M315.51,409.59s0,4.34,0,5.48-1.33,2.84-4.81,2.71c-2.44-.09-4.15-.74-4.05-2.76v-5Z" style="fill: rgb(255, 168, 167); transform-origin: 311.078px 413.689px;" id="elnzrgx59h2ai" class="animable"></path><path d="M319.09,394.48a10.42,10.42,0,0,0,.29,4.7c.87,2.47,2.72,3.6,3.8,4.58a18.86,18.86,0,0,1,3.16,3.82,15.89,15.89,0,0,0,3.29,4.12c1,.9,3.93,1,5.33.39s1.86-1.12,1.78-3.35-6.85-3-6.85-3Z" style="fill: rgb(69, 90, 100); transform-origin: 327.847px 403.478px;" id="elbh4uph4qjbo" class="animable"></path><path d="M335.86,402.09c.58.22.73,1.32.81,3.5.07,1.66.76,4.08-1.51,5.12a5.57,5.57,0,0,1-6-1.28c-1.55-1.94-2.6-3.66-4.81-6-1.92-2.06-3.92-2.75-4.77-6.87-.55-2.65-.12-3.74,1.67-4.5,2.44-1,6.29,2.36,8.21,2.9C331.09,395.39,335.29,401.87,335.86,402.09Z" style="fill: rgb(0, 255, 136); transform-origin: 328.089px 401.484px;" id="elkevdgr9y4sg" class="animable"></path><g id="el04ln9xuny8h4"><path d="M335.86,402.09c.58.22.73,1.32.81,3.5.07,1.66.76,4.08-1.51,5.12a5.57,5.57,0,0,1-6-1.28c-1.55-1.94-2.6-3.66-4.81-6-1.92-2.06-3.92-2.75-4.77-6.87-.55-2.65-.12-3.74,1.67-4.5,2.44-1,6.29,2.36,8.21,2.9C331.09,395.39,335.29,401.87,335.86,402.09Z" style="opacity: 0.3; transform-origin: 328.089px 401.484px;" class="animable"></path></g><path d="M329.44,394.93l-.33-.11a6.32,6.32,0,0,0-5.3,3.47c-.32.72.68,1.29,1.28.72a6.75,6.75,0,0,1,5.3-3.45A2.8,2.8,0,0,0,329.44,394.93Z" style="fill: rgb(250, 250, 250); transform-origin: 327.069px 397.031px;" id="ella22dfd585k" class="animable"></path><path d="M331,396.18a6.24,6.24,0,0,0-4.92,3.44c-.33.72.68,1.29,1.28.72a6.43,6.43,0,0,1,4.42-3.29C331.53,396.74,331.27,396.44,331,396.18Z" style="fill: rgb(250, 250, 250); transform-origin: 328.898px 398.376px;" id="els8dur44iow" class="animable"></path><path d="M336.19,398.14l-.33,4.61a6.57,6.57,0,0,1-6.78.18c-.12-.26-.46-4.38-.46-4.38Z" style="fill: rgb(255, 168, 167); transform-origin: 332.405px 400.962px;" id="el217gvfx3j7b" class="animable"></path><path d="M320.69,399.58s.19-4.9,6.81-5.59l.38.22a5.72,5.72,0,0,0-3.26-2.52,4.5,4.5,0,0,0-5.09,1.47C318.37,394.65,319.54,398.62,320.69,399.58Z" style="fill: rgb(250, 250, 250); transform-origin: 323.466px 395.5px;" id="el2tnxdcd8qm" class="animable"></path><path d="M338.12,367.42a66.89,66.89,0,0,0-2.61-12.89s1.12-11,1.78-21.52c.71-11.32.55-25.57.83-28.39,0,0-35.1-8.11-36.05,5-1.06,14.72.07,47.13.28,51.23.31,5.77.32,11.76,1.3,21.11s2.58,30,2.58,30c4.68,1.68,9.77,0,9.77,0s2.71-25.08,2.59-31.73a56.85,56.85,0,0,0-2.19-14.54l4.36-36.48s.44,16.23.74,22,1.1,9.28,2.52,20c1.24,9.3,4.44,28.06,4.44,28.06a10.19,10.19,0,0,0,7.76,0S339.07,375.48,338.12,367.42Z" style="fill: rgb(55, 71, 79); transform-origin: 319.968px 357.423px;" id="elm3wm3qulh6b" class="animable"></path><path d="M333.46,321.55s-4.25,5.72-9.72,8.17c0,0-2.38,20.09-2.36,19.69l-.62-20.22S328.93,325.4,333.46,321.55Z" style="fill: rgb(38, 50, 56); transform-origin: 327.11px 335.483px;" id="elg59amzg5y5a" class="animable"></path><polygon points="313.75 252.89 315.65 264.84 327.5 264.21 325.8 250.32 313.75 252.89" style="fill: rgb(255, 168, 167); transform-origin: 320.625px 257.58px;" id="elsp5otolf0vj" class="animable"></polygon><path d="M336.94,264.3c-1-3.26-4.16-7.49-8.29-6.82-1,.15-1,.15-1.89.31-.5,2-6.56,3.73-11.84,2.49-1.59.42-3,.85-4.37,1.29-3.79,1.26-7.29,4.43-7.88,16.8,0,0-1.05,28.57-.86,36.29a40.89,40.89,0,0,0,23.26,3c11.36-2.22,13.23-7.09,13.23-7.09s.41-22.39.27-31.36C338.45,271.56,337.62,266.54,336.94,264.3Z" style="fill: rgb(69, 90, 100); transform-origin: 320.193px 287.804px;" id="elj984cldq51" class="animable"></path><path d="M305.78,238.22s-2.82,4.29-2.5,4.71,2.4.8,2.4.8Z" style="fill: rgb(242, 143, 143); transform-origin: 304.517px 240.975px;" id="eldjegh6sj5t5" class="animable"></path><path d="M313.63,226.36c-5.72,1.21-7.37,3.72-7.91,12.8-.56,9.49.41,12.47,1.65,13.75.84.86,5.52,1,7.88.37,2.95-.81,9.63-3.18,12.75-7.95,3.68-5.62,4.64-13.23.71-16.35C323.17,224.58,316,225.87,313.63,226.36Z" style="fill: rgb(255, 168, 167); transform-origin: 318.4px 239.735px;" id="elmpje9zg4ttr" class="animable"></path><path d="M313.86,253.54a23.32,23.32,0,0,0,3-.76,5.3,5.3,0,0,1-2.87,1.66Z" style="fill: rgb(242, 143, 143); transform-origin: 315.36px 253.61px;" id="elylfawzlqhg9" class="animable"></path><path d="M304.57,229.87A7.34,7.34,0,0,0,306,231a20.73,20.73,0,0,0,2.39,1.33,13.66,13.66,0,0,1,2.32,1.09,3.2,3.2,0,0,1,1.2,2.91c0,.78,0,1.75,0,2.8,0,1.57,1,2.77,1.51.66,0,0,.91-3.51,3.86-3.07s3.22,3.77,1.81,6.39c-.86,1.59-3.16,1.17-3.16,1.17a10.32,10.32,0,0,0,3.09,8s2.35,1.22,7,.23c3.18-4.38,5.19-6.51,6.88-10.29,3.6-8,1.86-13-.91-15.14-.56-3.69-3.46-5.34-6.77-6.1-4.95-1.14-9.58,1.8-14.47.71a24,24,0,0,1-2.39-.63,1.31,1.31,0,0,0-1-.07,1.09,1.09,0,0,0-.46,1.1,3,3,0,0,0,1.44,2.31,3.76,3.76,0,0,0-.71.08c-.27,0-.55,0-.82,0a12.56,12.56,0,0,1-1.61-.11,3,3,0,0,0-1.11,0,2,2,0,0,0-1.26,2,4.87,4.87,0,0,0,.88,2.38,8.07,8.07,0,0,0,.59.85Z" style="fill: rgb(38, 50, 56); transform-origin: 318.879px 236.805px;" id="elvnv9bj4rh4d" class="animable"></path><path d="M332.12,228.29l3.42-2a2,2,0,0,0-3.42,2Z" style="fill: rgb(38, 50, 56); transform-origin: 333.755px 226.909px;" id="elazjxv12c4wc" class="animable"></path><path d="M264.6,282c1.75.83,22.67,17.23,25.95,15.51S311,276.3,311,276.3a13.3,13.3,0,0,0-.14-14.78s-5.37.87-8.26,5-15.31,19-15.31,19q-4.42-2.34-8.82-4.74c-2.41-1.32-4.83-2.64-7.19-4.05a9.77,9.77,0,0,1-1.85-1.2c-1.15-1.2-.88-4-.83-5.54,0-.72.05-1.44.15-2.15.13-.87.34-3-1.25-2.37a2,2,0,0,0-.77.62,3.79,3.79,0,0,0-.59,1.06c-.31.92-.24,1.94-.54,2.87a.72.72,0,0,1-.2.36.73.73,0,0,1-.5.15c-2.29-.13-4.39-3.39-5.41-5.12a4.66,4.66,0,0,0-1.7-2c-1.24-.61-2.77.19-3.6,1.3a7.25,7.25,0,0,0-1.26,5,10.11,10.11,0,0,0,2.86,6.42A30.54,30.54,0,0,0,264.6,282Z" style="fill: rgb(255, 168, 167); transform-origin: 283.027px 279.578px;" id="elsg40926fj7q" class="animable"></path><path d="M312.56,260.93c-2.3.22-6.13.3-10,4.46-4.49,4.85-11.4,14.42-11.4,14.42a12.77,12.77,0,0,0,8.15,9.9s10.75-9.7,13-14.1S315.2,264,312.56,260.93Z" style="fill: rgb(0, 255, 136); transform-origin: 302.722px 275.32px;" id="elo6k7rf7gtz" class="animable"></path></g></g><g id="freepik--character-1--inject-1--inject-170" class="animable" style="transform-origin: 195.058px 323.348px;"><g id="freepik--character--inject-1--inject-170" class="animable" style="transform-origin: 195.058px 323.348px;"><path d="M170.78,255.66c-5.76-1.95-9.64,1.69-13.21,7.39-2.94,4.71-10.74,18.92-10.39,22.48s15.7,19.3,15.7,19.3l4.22-5L158,284.68l9-12.73Z" style="fill: rgb(255, 168, 167); transform-origin: 158.974px 279.98px;" id="elqb1o3fnt62r" class="animable"></path><path d="M182.32,411.67c-.3,1.39-.62,2-1,3.73-.27,1.22-1.09,3.09-.1,4.59s3,1.59,5.41,1.65c1.55,0,4.77,1.27,6.75,2.33a16.59,16.59,0,0,0,8.4,1.31c2.43-.49,4.75-.54,5.8-3s-3.84-4-6.84-4.78c0,0-10-3.84-10.66-5.75C187.14,411.62,185,411.77,182.32,411.67Z" style="fill: rgb(38, 50, 56); transform-origin: 194.235px 418.52px;" id="elqee1y2o5y6c" class="animable"></path><path d="M190.1,411.79c-3-.17-5.11-.12-7.78-.12-.94,0-.62,2-1,3.73" style="fill: rgb(38, 50, 56); transform-origin: 185.71px 413.532px;" id="el2paeminyy0s" class="animable"></path><path d="M182.3,409.28c2.55,0,5.67-3.15,8.21-3.14,0,0-.27,2.39-.29,3.78s1.29,2.61,1.7,3.05c1.38,1.49,7.45,3.74,8.85,4.27a15.6,15.6,0,0,1,1.89.83c1.06,1.7-.39,2.83-3.24,2.88s-10.51-2.12-13.4-3.59-3.21-2.86-3.67-5.47A7.92,7.92,0,0,0,182.3,409.28Z" style="fill: rgb(255, 168, 167); transform-origin: 192.654px 413.545px;" id="el7vyn6so0qlc" class="animable"></path><path d="M160.43,399.21c-.7.23-.89,1.5-1,3.43-.06,1.24-.91,4,2.47,5.25,1.8.67,4.41.58,5.73-.95,1.64-1.91,1.9-3.75,3.67-5.67,1.54-1.67,3.68-4.15,4.17-6.34s.32-3.3-1.69-4.13-3.76.54-5.44,1.8a21.78,21.78,0,0,1-2.07,1.13C164.16,394.93,162.35,398.59,160.43,399.21Z" style="fill: rgb(38, 50, 56); transform-origin: 167.496px 399.417px;" id="el6k6a86obx7q" class="animable"></path><path d="M160.43,398.58a9.26,9.26,0,0,0,0,2.47c.66,2.1,4.79,1.38,6.35,0,.3-1.65.39-3.35.54-5Z" style="fill: rgb(255, 168, 167); transform-origin: 163.834px 399.209px;" id="elvyl61exo9we" class="animable"></path><path d="M166.35,393.67c.81-.25,1.13-.72,2.07-1.07h0c2-.75,5.25.32,4,2.64a20.91,20.91,0,0,1-5.58,5.78c-1.65,1.18-1.78.31-2.88-.2.32-2,.54-3.87.8-5.83C165.31,394.51,165.54,393.92,166.35,393.67Z" style="fill: rgb(255, 168, 167); transform-origin: 168.329px 396.986px;" id="elrzji5slll3a" class="animable"></path><path d="M157.9,367.32c-.62-7.26.22-10,1.25-15.85-.81-5.73-1.46-14.17-1.67-19.72-.48-13.17-1.1-23.06,4.25-34.56,9.07-3.46,29.16.44,31.21,8.41,1,14.67,2.09,39.43,1.54,52.74-.33,8-.67,11.32-1.83,23.14-.82,8.4-1.67,19.25-2.43,28.44-3.33,1.26-7,6.64-7.94-.71s-4.61-24.09-4.93-30.72c-.4-8.09.46-9.06,1.44-15.55-1.08-10-1.53-20.3-2.47-30.6-.76,5.82-.92,8.09-1.61,14.69s-2.14,13.62-3,22.14c-.77,7.39-2.73,19.78-4.28,28.13-2.5.49-4.3,3.29-7,1.28C160.41,390,158.52,374.57,157.9,367.32Z" style="fill: rgb(255, 168, 167); transform-origin: 175.901px 354.462px;" id="el4oxyjx0laat" class="animable"></path><path d="M161.56,297c-2.25,5.5-4.33,9-4.82,15.48s.16,17.22.52,23.56.7,9.83,1.41,15.56a33.75,33.75,0,0,0-1,11.76c1.64,2.28,5.48,3,8,3s5.73-1,6.65-2.35c1.07-4.73,1.36-7.45,2.21-12.68s1.25-13.16,1.76-18.86c.31,5.36.69,12.35.94,17.44s.51,8.4,1,13.13a56,56,0,0,0-1,12.81,12.93,12.93,0,0,0,7.09,3.17,18,18,0,0,0,8.64-.78c.77-4.91,1.51-8.79,2.09-13.69.89-7.53,1.11-20.36.9-29.51s-.58-20.53-2.27-29.44C183,302.6,172.27,300,161.56,297Z" style="fill: rgb(69, 90, 100); transform-origin: 176.294px 338.116px;" id="eli6mact719dp" class="animable"></path><path d="M176.2,332.62c0-4.52-1-7-1.22-11.18-3.55-.27-6.72-1.71-9.81-3.33,1.87,2.55,4.89,3.67,7.81,4.54.39,4.27,1,8.38,1.29,12.69s.35,8.92.67,13.22C175.12,343.66,176.18,337.14,176.2,332.62Z" style="fill: rgb(55, 71, 79); transform-origin: 170.685px 333.335px;" id="el58d7g0z95mu" class="animable"></path><path d="M187.68,236.33s3.8-4.4.93-8.79c-3.38-5.16-9.44-7-17-4.86-3.74,1-9.28,6.12-9.67,13.32-.29,5.56,15.25,9.47,14.94,13.28Z" style="fill: rgb(38, 50, 56); transform-origin: 175.809px 235.542px;" id="elcuszp0ngrjj" class="animable"></path><polygon points="182.76 250.56 181.59 262.78 170.67 262.1 171.54 248.55 182.76 250.56" style="fill: rgb(255, 168, 167); transform-origin: 176.715px 255.665px;" id="elmvkaecyhvb" class="animable"></polygon><path d="M190.87,237.15s2.42,3.59,2.1,4a5.81,5.81,0,0,1-1.85.79Z" style="fill: rgb(242, 143, 143); transform-origin: 191.935px 239.545px;" id="el3y9tjkpykmi" class="animable"></path><path d="M183.48,225.76c2.35,1.19,6.41,3.4,7.46,11.91,1.07,8.74-.91,11.78-2.12,12.92-.82.78-5,1.06-7.25.39-2.75-.84-8.72-3.74-11.52-8.26-3.3-5.3-4-12.38-.17-15.15C175.22,223.67,181.48,224.75,183.48,225.76Z" style="fill: rgb(255, 168, 167); transform-origin: 179.264px 238.085px;" id="ellr8jiaqzb4b" class="animable"></path><path d="M184.37,242.25a1.87,1.87,0,1,0-1.27-3.52Z" style="fill: rgb(38, 50, 56); transform-origin: 184.353px 240.434px;" id="el4qfl99ir14x" class="animable"></path><path d="M164.82,224.34a17.46,17.46,0,0,0-5.88,9.54,20,20,0,0,0,1.92,13.4c3.79,6.22,11.11,8.25,18.2,8.45a13,13,0,0,0,7-2.26c-2.26-.55-3.75-2.14-3.75-3.9a10.08,10.08,0,0,1,.63-2.85,8.1,8.1,0,0,0,.22-2.5,3.69,3.69,0,0,1-3.84-.82c-2-1.69-2.18-5,.3-5.83s3.77,2.05,3.77,2.05c9.48-2.36,9.29-12,6-15.3-2.92-3-8.61-4.06-12.23-1.72l.64,1.76a23.07,23.07,0,0,0-4.44.3l.42-2.5S169.59,220.68,164.82,224.34Z" style="fill: rgb(38, 50, 56); transform-origin: 174.983px 238.527px;" id="eliy82h38i4r" class="animable"></path><path d="M178.79,221.84a8.28,8.28,0,0,0-5,.32,12.58,12.58,0,0,1,6.27,6,19.89,19.89,0,0,1,1.18,9.42,3.64,3.64,0,0,1,1.82,1.52C188,227.44,178.79,221.84,178.79,221.84Z" style="fill: rgb(0, 255, 136); transform-origin: 179.153px 230.348px;" id="el3wzjmrxg24i" class="animable"></path><path d="M161.64,261c1.23-3.19,3.11-5.47,8.11-5.53l1.33.3c.35,1.8,5.71,3.46,11,1.62a22.36,22.36,0,0,0,2.93.7l2.54.36c3.87,1.25,5.58,7.86,5.95,18.33.13,3.56-.27,7.51-1,14.88,1.54,10.42,2.39,19.19,2.39,19.19s-7.72,3.19-20.86,1.5c-11.76-1.52-15-4.86-16.47-6.4a62.29,62.29,0,0,1,5.81-13.56l.8-4.31C160.86,273.55,158.51,269.08,161.64,261Z" style="fill: rgb(0, 255, 136); transform-origin: 176.225px 284.157px;" id="el0bh9pdbrh8fp" class="animable"></path><path d="M185,258.05c5.13.63,9,1.83,11.42,6.49,4.49,8.61,8.74,16.26,11.72,19.41,3.19,3.36,15.6,7.58,18.55,7.11s5.72-3.55,7.24-2.69-2,3.08-1.81,3.81,5.68-.06,8.21-1.81,4,3.28.74,7-9.29,4.77-16,3.46-19.14-4.35-24-8.79a66.46,66.46,0,0,1-12.26-14.72C180.55,267.09,185,258.05,185,258.05Z" style="fill: rgb(255, 168, 167); transform-origin: 213.375px 279.709px;" id="elszm6uoitfx" class="animable"></path></g></g><defs>     <filter id="active" height="200%">         <feMorphology in="SourceAlpha" result="DILATED" operator="dilate" radius="2"></feMorphology>                <feFlood flood-color="#32DFEC" flood-opacity="1" result="PINK"></feFlood>        <feComposite in="PINK" in2="DILATED" operator="in" result="OUTLINE"></feComposite>        <feMerge>            <feMergeNode in="OUTLINE"></feMergeNode>            <feMergeNode in="SourceGraphic"></feMergeNode>        </feMerge>    </filter>    <filter id="hover" height="200%">        <feMorphology in="SourceAlpha" result="DILATED" operator="dilate" radius="2"></feMorphology>                <feFlood flood-color="#ff0000" flood-opacity="0.5" result="PINK"></feFlood>        <feComposite in="PINK" in2="DILATED" operator="in" result="OUTLINE"></feComposite>        <feMerge>            <feMergeNode in="OUTLINE"></feMergeNode>            <feMergeNode in="SourceGraphic"></feMergeNode>        </feMerge>            <feColorMatrix type="matrix" values="0   0   0   0   0                0   1   0   0   0                0   0   0   0   0                0   0   0   1   0 "></feColorMatrix>    </filter></defs></svg>